<svg xmlns="http://www.w3.org/2000/svg" width="497" height="497" enable-background="new 0 0 497 497" viewBox="0 0 497 497"><path fill="#fff" d="M87.7 181.8c-.7-4-1.3-8-2.1-12-.7-3.6-1.1-7.3-2.3-10.7-2.7-7.3-5.6-14.6-8.9-21.6-2.4-5.2-5.8-10-8.5-15.2-2.4-4.6-2.6-9.2.6-13.7 2.6-3.6 5.1-7.1 7.8-10.6 1.8-2.3 6.9-2.9 10.3-1.5 5.2 2.1 10.4 4.2 16.3 4 5.9-.2 11.8 1 17.6.8 8.7-.3 17.3-1.1 25.9-2.9 10.1-2.1 19.5-5.8 28.4-11 1-.6 2-1.3 2.9-2 3.4-2.6 8.8-2.7 12.4-.6 6.3 3.7 12.4 7.8 19.1 10.8 7.6 3.3 15.6 6.3 24.1 6.9 1.2.1 2.4.6 3.6.9 6.7 1.6 13.5 1.5 20.2.2 5.7-1.1 11.6-1.6 17-3.4 7.5-2.5 14.7-5.8 21.8-9.1 3.6-1.7 6.7-4.3 10.1-6.4 3.2-2 6.8-2 10-.4 5.8 2.8 11.4 6.3 17.3 8.9 5 2.1 10.5 3 15.5 5 5.8 2.2 11.8 1.8 17.7 2.5 8.9 1.1 17.8 1.2 26.6.2 5.7-.7 11.3-2.7 16.8-4.5 3.9-1.2 8.1-.3 10.8 3 2.6 3.3 5.3 6.4 7.7 9.8 3.6 5.2 3.1 8.3-.1 13.7-4.8 8-9.3 16.2-13.4 24.5-2.1 4.2-3.4 8.9-4.4 13.5-1.2 5.6-1.8 11.3-2.5 16.9-.4 3.4-.7 6.8-1 10.1 0 .7.5 1.5.7 2.2.7-.3 1.4-.4 2-.8 6.8-5.2 13.7-5 20.8-.2 7.5 5.1 10.8 12.4 12 21 .5 4 2.2 7.1 5.4 9.7 2.7 2.2 5 4.9 7.1 7.6 3.1 4.1 6.7 7.6 11.1 10.3 2.8 1.7 5.2 4.1 7.5 6.5 2.2 2.3 4.5 4.2 7.8 5.1 10.7 3.1 18.8 14.3 18.2 25.5-.3 5.9-3.1 10.7-8 14.1-5.3 3.7-10.6 2.1-15.5-.7-2.4-1.3-4.3-3.4-6.6-5-2-1.4-4.2-2.8-6.5-3.5-3-1-4.9 1-3.5 3.8 1.6 3.3 4 6.3 6.2 9.2 2.6 3.4 6.1 4.9 10.4 5.7 10.6 2 17.7 8.2 20.8 18.6.8 2.7.8 6 .2 8.8-1.4 6.4-3.4 12.7-5.1 19-2.1 7.9-6.9 13.1-15.3 14.1-5.7.7-10.2-2.1-14.7-5.2-1.8-1.2-3.9-2.4-6-2.7-3.1-.5-4.4 1.3-3.1 4.3 3.1 6.8 6 13.7 9.7 20.2 4.2 7.2 9.5 13.7 13.6 20.9 3.3 5.7 4.4 12 1.4 18.4-2.2 4.6-5.8 7.3-10.8 8-4.7.6-9.5.5-14.2 1.2-10 1.3-18.3-10.5-16.6-19 1.1-5.2 0-9.6-3.8-13.5-2.4-2.5-4.4-5.4-6.6-8.1-1.9-2.4-2.7-2.3-3.9.5-2.4 5.6-4.4 11.4-7.5 16.6-4.2 7.1-9.3 13.8-14.1 20.5-2 2.8-4.4 5.5-6.8 7.9-9.2 9.4-19.8 17.2-31.3 23.6-6 3.3-12.3 6.2-18.6 8.9-5 2.1-10.2 4-15.5 5.5-5.3 1.5-10.7 2.6-16.1 3.7-6.2 1.2-12.5 2.3-18.8 3.3-1.7.3-3.5 0-5.2.2-2.9.3-5.8.6-8.6 1.1-.9.2-1.6 1-2.4 1.7-7.4 6.1-14.7 12.5-22.3 18.3-4.9 3.8-9 3.2-13.8-.7-4.8-3.9-9.5-7.7-14.3-11.6-2-1.6-4-3.2-5.9-5.1-2.9-2.9-6.4-3.7-10.3-3.7-8-.1-15.8-1.3-23.6-3.1-4.1-.9-8.3-1.4-12.4-2.4-3.8-.9-7.4-2.4-11.2-3.4-7.2-2-13.7-5.4-20.5-8.3-7.4-3.2-14.1-7.5-20.9-11.6-3.9-2.4-7.1-5.9-10.6-8.9-15.1-12.7-26.3-28.3-34.2-46.4-2.1-4.9-2.6-5-5.9-.9-.8 1-1.6 2.2-2.5 3.1-3.8 3.7-4.1 8.1-3.3 12.9 1.8 10.5-7.6 20.2-18.1 18.8-3.6-.5-7.3-.8-10.9-.9-8.6-.3-15-8-14-16.6.7-5.9 3-11 6.5-15.7 5.6-7.8 11.3-15.5 15-24.4 1.5-3.4 3.2-6.8 4.5-10.3.5-1.2.8-3.1.2-4-.6-.8-2.6-1.2-3.8-.9-1.8.4-3.4 1.6-5.1 2.5-3.4 1.7-6.6 4-10.2 5-7.3 2-15.5-2.5-18.3-9.5-.7-1.8-1.4-3.8-1.9-5.7-1.6-5.5-3-11.1-4.5-16.6-2-7.2.1-13.5 4.8-19.1 4.4-5.3 10-8.6 16.8-9.5 3.8-.5 6.8-2.1 9.1-5 1.9-2.4 3.9-4.8 5.7-7.3.6-.8 1-1.9 1.2-3 .6-2.4-.7-4.1-3.1-3.4-2.5.8-5.1 2.1-7.2 3.7-3.6 2.8-6.9 5.5-11.4 7-6.1 2-11.8-.9-15.3-6.1-3.3-5-4.4-10.3-2.4-16.1 3-8.8 7.1-16.5 17.1-18.8 3.3-.8 5.7-2.7 8-5.2s4.8-4.9 7.7-6.6c5.1-3 8.7-7.4 12.2-12 1.7-2.1 3.6-4.2 5.7-5.8 3.3-2.4 4.8-5.6 5.3-9.5.8-6 2.4-11.9 6.6-16.4 4.4-4.8 9.7-8.5 16.6-8.4 1.5 0 3 .5 4.4.9 2 .7 2.9.1 2.8-2v-2.7c.4.3.5.3.6.3zm161.6-51.9c-9.8 1-19.4.3-28.8-2-5.3-1.3-10.6-2.9-15.7-4.7-5.9-2.1-11.9-4.3-17.4-7.3-4-2.1-7.1-1.9-11-.2-5.3 2.4-10.8 4.3-16.3 6.1-3.8 1.3-7.8 2.1-11.8 3-1.8.4-3.6.8-5.4.9-6.3.5-12.6-.3-19 1s-13.2.9-19.9 1.2c-3.3.2-3.5.7-2.3 3.8 2.1 5.1 4.2 10.2 5.8 15.4 1.5 4.8 2 9.9 3.4 14.8 1.2 3.9 1.7 7.8 1.6 11.8-.1 4.8.1 9.7-.1 14.5-.2 5.9-.6 11.8-.9 17.6-.1 1.5.3 2.5 1.8 3.1 4.1 1.5 8.1 2.9 12.6 2.7 2.7-.1 5.5.5 8.2.7 6.2.6 12.4 1.4 18.6 1.6 2.6.1 5.5-.7 7.9-1.8 4.9-2.2 9.4-2.4 14.3.1 7.1 3.6 9.6 10.3 8.7 15.4-1 6-3.4 11.3-8.1 15.4-.4.3-.6.8-1.3 1.9h74.9c.2-37.8.2-76.2.2-115zm-196 277.6c-.5-.7-1-1.3-1.4-1.9-2.1-3.3-4.7-6.6-1.8-10.7 1.7-2.4 3.5-4.7 5.3-6.9 4.2-5.1 8.6-10.1 12.6-15.4 1.9-2.6 2.9-5.9 4.5-8.8 3.4-6.2 7-12.2 10.4-18.4.6-1.1 1.5-2.1 1.8-3.3.8-3.2 1.3-6.5 3.9-9 .4-.4.3-1.4.4-2.2.4-3.1.9-6.2 1.2-9.4.2-2.4.7-5 .1-7.3-.5-2.2-.6-3.5 1.2-5 2.8-2.3 3.1-4.2 1.8-7.5-.5-1.2-1.2-2.4-1.4-3.7-.2-.9 0-2.3.5-2.7 3-2 3.8-5.2 4.6-8.3 1.4-4.9 3.3-9.7 3.7-14.7.3-3.7 1.4-7.1 2.2-10.6.5-1.9 1.5-3.8 1.7-5.7.4-3.8 1.6-7.1 4.1-10 .8-.9 1.4-2.1 2-3.1 2.2-3.4 2.3-3.5 6.2-2.4.7.2 1.5.7 2 1.3 1.4 1.6 2.6 1.6 3.9 0 .4-.4.9-.8 1.2-1.3.8-1.3 1.7-1.2 3.1-1 3.3.5 6.8 1 10.1.6 6-.8 12-1.9 17.9-3.5 5.6-1.6 11.5-2.9 16.1-6.9.8-.7 1.2-2.4 1-3.5-.6-2.2-4.5-3.5-6.3-2.1-3.7 2.8-7.6 4.3-12.4 3.5-4.7-.7-9.4-.8-14.1-1.1-3.7-.2-7.3-1.9-11-.2-.4.2-1.4.1-1.6-.3-1.3-2-2.5-1-3.9-.1-3.2 2.1-5.6 1.4-7.9-1.5-1.1-1.4-2.9-2.8-4.5-3-3.5-.5-7.2-.1-10.8-.2-.5 0-1-.2-1.4-.4-1.9-1.3-3.8-1.3-5.9-.2-.8.4-2.4.6-2.9.2-.6-.5-.8-2-.6-3 .5-2.3 1.1-4.5-.9-6.5-.4-.4-.3-1.4-.4-2.1-.3-2-.5-4-.9-5.9-.7-3-3.2-5-6.3-5.2-4.2-.3-7.9 2.7-9.1 7-1.2 4.2-1.4 8.5-.5 12.6.9 4.1-1.4 5.5-4.4 7-3 1.6-6.1 3.2-8.4 5.6-3.5 3.7-6.2 8.3-9.7 12-2.1 2.3-4.9 4.3-7.8 5.5-2.2.9-3.7 1.9-4.7 4-.3.7-.6 1.6-1.2 2.1-2.4 2.3-4.9 4.5-7.4 6.7-1.8 1.6-3.8 2.3-6.2 1.6-2.4-.7-4.1.3-5.1 2.5-.8 1.7-1.2 3.6-2.1 5.3-.9 1.8-.3 3.2.7 4.6 1 1.5 2.5 1.7 4 1 2.2-1.1 4.3-2.3 6.4-3.7 3.4-2.3 6.5-5 10-6.9 5.2-2.9 10.7-5.3 16-7.9.4-.2.9-.3 1.4-.4 2.8-.7 5.6-1.3 8.4-2 .6-.1 1.2-.3 2.3-.5-.5 1.5-.9 2.4-1.3 3.4-2 6.4-4 12.9-5.8 19.3-.4 1.3-.1 3 .4 4.3.6 1.4.4 2.2-.5 3.3-2.8 3.4-6.3 6.5-7 11.3-.1.4-.8.8-1.2 1.1-1 .8-2.2 1.3-2.9 2.2-2.6 3.1-4.9 6.2-7.4 9.3-.6.7-1.3 1.6-2 1.7-2.5.5-5 1-7.6 1-3.9.1-7.6-.1-10.5 3.3-3.1 3.7-2.8 7.1 1.1 9.8.6.4 1.5 1.5 1.4 2-1.5 4.4-.2 8.5.8 12.7.8 2.9 2.6 4.6 5.5 4.9 2.9.3 5.2-.8 7.3-2.5 4.1-3.3 7.9-7 13-8.7.7-.2 1.9-.2 2.2.1 2.2 2.7 3.9 1.7 6.1-.1 2.2-1.8 4.7-3.3 7.2-4.8 1-.6 2.3-.6 2.5 1 .3 2.8.3 5.6.5 8.4.2 1.8.4 3.8 1.2 5.3.9 1.8 1.3 3.6.3 5.2-2.6 4.3-5.5 8.5-8.2 12.7-1 1.6-2.2 3.2-2.7 5-1.3 4.1-2.7 8.1-5.3 11.7-5 7.1-9.7 14.5-14.4 21.8-1 1.6-1.5 3.5-2.1 5.3-.5 1.8.2 3 2.2 3 5.5.1 11 .2 16.6.3.2.5.3.3.9 0zm390.8.4h8.6c2.3 0 4.6 0 6.9-.1 4.2-.1 5-.7 4.1-4.4-.3-1.4-1-2.8-1.8-4-3.7-5.5-7.7-10.9-11.2-16.5-3.5-5.5-7.5-10.8-8.7-17.5-.3-1.4-1.3-2.7-2.1-3.9-2.8-4.3-5.7-8.5-8.4-12.9-1.1-1.7-1.3-3.7.1-5.6.8-1.1 1.3-2.6 1.4-3.9.2-2.9.1-5.8.1-8.7.1-2.7 1.1-3.3 3.5-1.9 2.8 1.7 5.4 3.8 8.3 5.6.7.4 2.4.5 2.8.1 1.8-2.3 3.7-1.6 5.7-.5 1.4.8 2.8 1.5 4 2.5 3.2 2.3 6.2 4.8 9.4 7 3.5 2.4 10.4.7 10.5-4.6 0-1 .7-1.9.8-2.9.1-2.7.4-5.5 0-8.1-.2-1.6-.1-2.4 1.3-3.2 2.7-1.5 3.7-3.8 3.1-6.4-.8-3.2-5.3-6.5-8.6-6.6-3.7-.1-7.4-.4-11.1-.9-.8-.1-1.7-1-2.3-1.7-2.5-3-4.7-6.3-7.2-9.2-2-2.3-4.7-3.8-5.8-7.2-.9-2.8-3.3-5.1-5.3-7.4-1.2-1.4-1.5-2.4-.6-4.2.6-1.1.6-2.8.2-4.1-1.2-4.7-2.7-9.3-4.1-13.9-.8-2.7-1.8-5.4-2.7-8.3 4.2.9 7.9 1.7 11.6 2.5.3.1.5.4.8.6 4.1 2.1 8.1 4.7 12.4 6.3 5 1.8 9.1 4.6 13 8.1 2 1.7 4.6 2.9 7.1 3.8 2.3.8 5.2-2.2 4.5-4.5-.6-2.2-1.6-4.4-2.5-6.5-1-2.3-2.8-3.1-5.3-2.6-1.2.2-2.7.5-3.6-.1-4.4-2.9-8.9-5.7-11.4-10.8-.6-1.3-2.2-2.3-3.6-3.2-1.5-.9-3.6-1.2-4.7-2.4-3.7-3.8-7.2-7.8-10.5-11.9-2.1-2.5-3.9-5.1-6.9-6.6-2.6-1.3-4.9-3.1-7.5-4.5-1.4-.8-1.7-1.8-1.5-3.3.6-5 1.1-10-.6-15-1.3-3.7-4.6-6.6-8.4-6.5-3.8.1-6.2 2.4-7 6.8-.4 2.1 0 4.7-1 6.3-1.5 2.4-1.4 4.4-.8 6.8.2.9 0 2.3-.6 2.9-.4.4-2 .3-2.7-.2-2.1-1.4-4.1-1.1-6.1.1-.4.3-1 .5-1.4.4-3.2-1.1-6.2-.1-9.3.1-2.9.2-5 1.1-6.4 3.5-.9 1.6-2.4 2.5-4.1 2.2-1.4-.2-2.7-1-4.1-1.5-.8-.2-1.6-.4-2.4-.3-1.1.1-2.2.7-3.3.7-1.4 0-2.8-.5-4.2-.4-5.9.5-11.7 1.2-17.6 1.8-5 .5-10.1 1.2-14.2-2.9-.3-.3-.7-.4-1.1-.6-1.9-1.1-5.8.6-6.1 2.8-.1 1 .3 2.5 1 3 3.8 2.9 8.1 4.8 12.8 5.9 5.2 1.2 10.4 2.3 15.6 3.6 4.8 1.3 9.7 2 14.5.6 2.6-.8 4-.1 5.4 1.8 1.5 2 2.2 1.5 4.2.1 1.6-1.1 4-1 6.1-1.4 2.4 3.7 5.4 7.1 7.1 11.1 1.8 4.2 2.6 8.9 3.6 13.4.7 3.2.7 6.6 1.4 9.7 1.3 5.1 2.8 10.1 4.5 15.1.6 1.9 2.2 3.4 3.2 5.2.6 1.1 1 2.3 1.1 3.5 0 .9-.7 1.8-1.1 2.8-1.7 3.9-1.4 5.7 1.8 8.6 1.4 1.2 1.7 2.5 1 4.2-.4 1.1-.6 2.4-.4 3.6.5 4.1 1 8.2 1.7 12.3.3 1.7.9 3.3 1.4 4.9.6 1.7 1.4 3.5 2.1 5.1 1.1 2.4 2.2 4.8 3.5 7.1 3.2 6.1 6.6 12.1 9.8 18.1 1.8 3.3 3.2 7 5.5 10 4.8 6.1 10 11.7 15 17.6 3.1 3.7 3.3 6.9.8 11-1 1.6-1.8 2.9-3 4.6zM172 377.1v-61.2c0-1.4-.6-2.2-2.1-2.2-8.9 0-17.8 0-26.7.1-.7 0-1.8 1.2-1.9 1.9-.2 2.7-.2 5.5-.2 8.2 0 33.4 0 66.8.1 100.2 0 .9.6 2 1.2 2.5 2.1 1.5 4.2 3 6.5 4.1 6.3 2.9 12.8 5.5 19.2 8.2 3.6 1.5 3.8 1.3 3.8-2.5.1-19.8.1-39.5.1-59.3zm153.5-1.1v59c0 2.8.6 3.4 3 2.3 7.9-3.8 15.7-7.6 23.5-11.5 1.8-.9 2.6-2.3 2.6-4.4-.1-34.9-.1-69.8 0-104.8 0-2.3-.8-3-3.1-3-7.5.1-15 0-22.5 0-3.4 0-3.5.1-3.5 3.6V376zm-100.4 43.8c.2.2.5.4.7.6-.2.5-.3 1-.6 1.4-2.6 3.2-5.3 6.4-7.9 9.7-1.1 1.5-3 3.5-2.6 4.8 1.3 4.6 3.2 9.1 5.3 13.3.9 1.7 2.9 3.3 4.7 3.9 4.7 1.4 9.5 2.7 14.3 3.1 6.7.5 11-4.3 15.5-8.4 2.6-2.3 2.3-4.9 1.3-7.7-1.6-4.3-3.1-8.6-4.6-12.9-.2-.6-.3-1.3-.4-1.9.3-.1.6-.2.8-.3.5 1 1.1 1.9 1.5 2.9 1.8 4.6 3.5 9.2 5.4 13.7.4.9 1.2 2 2.1 2.2 4.4 1.2 8.9 1 12.5-2.2 2.3-2.1 4.7-4.4 6.3-7 3.8-6.3 4.9-13.2 2.6-20.3-.7-2.1-1.9-3.7-4.1-4.3-3.7-.9-7.4-2-11-3-.7-.2-1.4-.6-2.1-.9.1-.3.2-.5.2-.8.8.1 1.7.1 2.5.2 3.6.8 7.1 1.6 10.7 2.4 2.3.5 2.9.2 2.2-2.1-.8-2.7-1.6-5.7-3.4-7.7-5.7-6.4-13-10.5-21.6-12.1-2.3-.4-3.8.2-4.9 2.3-.5.9-1.2 1.6-1.9 2.4l-.9-.6c.8-1.5 1.5-3 2.4-4.7-.9-.1-1.6-.2-2.3-.3-7.5-.2-14.7 1.3-21.6 4.6-4.5 2.2-9.6 3.6-11.7 9-.1.3-.6.6-.9.8-8.3 6.9-12.5 15.6-11.5 26.5.4 4.2 6.1 8.7 10.2 7.8.6-.1 1.2-.6 1.6-1.1 2-2.4 3.9-4.8 5.8-7.1 1.8-2.3 3.6-4.3 5.4-6.2zm69.9 5.7V317.4c0-3.7 0-3.7-3.8-3.7h-23.7c-2 0-3 .5-3 2.8.1 22.7 0 45.5 0 68.2 0 1.9.7 2.8 2.4 3.5 5.8 2.3 10.7 6.1 14.9 10.6 7.2 7.5 11.8 16.3 13.2 26.7zm-93.5-14.7c.6-.8.8-.9.9-1.1 6.3-12 16.1-19.7 28.9-23.7 1.9-.6 2.1-1.7 2.1-3.3v-66c0-2.3-.8-3-3-3-8.4.1-16.8 0-25.2 0-3.7 0-3.7 0-3.7 3.8v93.3zm105.8-297c-4 2.3-7.3 4.4-10.9 6.2-2.4 1.2-2.9 2.9-2.9 5.4.1 38.6 0 77.1 0 115.7v1.7c-.1 1.6.7 2.3 2.3 2.2h8.2c3.3 0 3.4-.1 3.4-3.3V116.8c.1-.9 0-1.8-.1-3zM278 185.9v-56.2c0-1.7 0-3.1-2.4-2.6-2.2.4-4.4.8-6.6 1.1-3.9.4-4.5 1-4.5 5v109.5c-.1 1.8.6 2.6 2.5 2.5 2.5-.1 5 0 7.5 0 3.5 0 3.5 0 3.5-3.5v-55.8zm45.4-66.2v92.4c4.5-2.7 8.6-1.7 13-.2.1-1.5.2-2.6.2-3.6v-68c0-4.7.1-9.3-.1-14 0-1.1-.7-2.7-1.5-3-3.2-1.4-6.5-2.5-9.8-3.6-.5-.2-1.1 0-1.8 0zm42.6 50.5v-38c0-4-.8-4.8-4.9-5.1-2.3-.2-4.6-.6-6.9-.7-.5 0-1.3.7-1.6 1.3-.3.6-.1 1.5-.1 2.2v81.7c0 1.5.8 2.1 2.3 1.9 2.7-.4 5.4-.8 8.2-1 2.4-.2 3.1-1.4 3.1-3.8-.1-12.8-.1-25.6-.1-38.5zm20.7 220.9c.5-.3.8-.4.9-.6 2.6-5.6 5.7-11.1 7.8-17 2.4-6.8 4.1-13.8 5.9-20.8.4-1.7 0-3.9-.7-5.5-2.4-5.6-4.4-11.3-5.2-17.4-.5-4.5-1.4-8.9-2.3-13.3-.5-2.8-1.7-3.3-4.8-2.9-2.4.3-1.8 2.1-1.8 3.4v71.5c.1.9.2 1.6.2 2.6zm-280 1.6c.3 0 .6-.1.9-.1.1-1.4.4-2.9.4-4.3v-67.7c0-1.4-.1-2.8-.4-4.2-.2-.9-.8-1.6-1.1-2.4-.7.8-1.7 1.4-1.9 2.3-.8 3.4-1.4 6.8-2 10.3-.4 2.5-.4 5-.9 7.4-1.8 7.5-4.7 14.5-8.7 21.1-.4.7-.4 1.9-.2 2.8 1 4 2.3 7.9 3.2 12 1.8 8.2 6.7 15.3 10.7 22.8zM288.3 283h-.7c-.3-1.1-.7-2.2-1-3.3-1.1-3.8-2-7.6-3.3-11.3-.3-1-1.5-1.7-2.2-2.5-.3 1.1-1 2.3-.8 3.2 1.8 6.9 3.8 13.8 5.9 20.7.2.8 1.1 1.3 1.6 2 .6-.7 1.6-1.2 1.9-2 1.4-4.3 2.5-8.6 3.8-12.9.2-.7.5-1.4.7-2.2.9.9 1.2 1.7 1.4 2.5 1.2 4.2 2.3 8.3 3.7 12.5.3.8 1.2 1.4 1.8 2.1.5-.6 1.4-1.1 1.6-1.7 2.1-7.1 4.2-14.2 6.1-21.4.2-.7-.5-1.7-.8-2.6-.7.6-1.7 1-2 1.7-1 2.7-1.7 5.4-2.5 8.1-.7 2.4-1.4 4.8-2.2 7.3-.9-.8-1.2-1.7-1.4-2.5-1-3.6-2-7.2-3.1-10.8-.5-1.4-1.5-2.6-2.2-3.9-.8 1.3-1.9 2.6-2.4 4-1.5 4.3-2.6 8.7-3.9 13zm-61.7-4.1v10c0 2.1 1 3.1 3 3.1 3.7 0 7.3.1 11-.1.9 0 1.8-1 2.6-1.6-.9-.5-1.8-1.5-2.7-1.5-2.8-.2-5.7-.1-8.5-.1-1.5 0-2-.7-2.1-2.1-.4-5.4-.3-5.6 5.2-5.6h.7c1.5-.2 3.8.6 3.8-1.6 0-2.3-2.3-1.6-3.8-1.6-6.5-.2-5.9 1.2-5.9-6.4 0-1.7.7-2.4 2.4-2.4 2.7.1 5.5.1 8.2-.1.9-.1 1.8-1 2.7-1.5-.9-.6-1.7-1.6-2.6-1.6-3.7-.2-7.3 0-11-.1-2.1 0-3.1 1-3 3v10.2zm35-.1V289c0 1.8.8 2.9 2.7 2.9 3.9 0 7.8.1 11.7-.1.8 0 1.5-1 2.2-1.5-.8-.6-1.5-1.6-2.3-1.6-2.8-.2-5.7-.2-8.5-.1-1.8 0-2.5-.7-2.5-2.5-.2-5.2-.2-5.2 5.1-5.2h1c1.4-.2 3.6.5 3.6-1.5.1-2.3-2.2-1.7-3.7-1.7-6.6-.2-6 1.3-6-6.5 0-1.6.7-2.3 2.3-2.2 2.8 0 5.7.1 8.5-.1.9-.1 1.7-1.1 2.5-1.7-.8-.5-1.6-1.4-2.5-1.5-3.7-.2-7.3 0-11-.1-2.3-.1-3.2 1-3.2 3.2.2 3.4.1 6.7.1 10zm-124-.5c-.1-1.7-.1-2.6-.2-3.5 0-2.1.1-4.2-.1-6.2-.1-.8-1.1-1.4-1.7-2.1-.5.7-1.4 1.3-1.4 2-.1 7.1-.1 14.2 0 21.2 0 .7 1.1 1.4 1.6 2.1.5-.7 1.4-1.4 1.5-2.2.2-1.6.1-3.3.1-5 0-1.8.8-3 2.6-3.7 2.6 3.2 5.1 6.4 7.8 9.5.6.7 1.9.7 2.9 1-.1-.9 0-2.1-.5-2.8-2.2-2.9-4.5-5.8-6.9-8.6-1.1-1.3-1-2.2.2-3.3 2.4-2.2 4.7-4.5 6.9-6.9.5-.6.4-1.7.5-2.6-.9.2-2 0-2.6.5-1.8 1.6-3.5 3.3-5.2 5-1.6 1.7-3.3 3.4-5.5 5.6zm27.7 10.7c-4.2-.2-7.1-2.3-8.9-5.8-1.8-3.3-1-7.6 1.6-10.5 2.8-3.1 6.2-3.9 10.2-2.7.9.3 1.7.9 2.5 1 .6.1 1.5-.3 1.9-.7.2-.3-.1-1.3-.5-1.7-.5-.5-1.2-.9-1.9-1.2-4.6-1.8-9-1.4-12.9 1.7-4.3 3.4-6 7.8-4.6 13.3 2 7.9 11.5 12.1 18.3 8.1.8-.5 1.1-1.6 1.7-2.4-1-.1-2-.5-2.9-.4-1.5.2-3 .8-4.5 1.3zm41.1-3.9c-.5-.9-.8-1.2-.9-1.4-1.9-5.2-3.8-10.5-5.9-15.6-.3-.8-1.4-1.3-2.1-2-.3 1-1 2.1-.8 2.9.6 2.5 1.6 4.9 2.5 7.3 1.7 4.6 3.4 9.2 5.2 13.8.3.7 1.1 1.4 1.9 1.7.3.1 1.3-.8 1.5-1.3 2.8-7.3 5.5-14.6 8.1-22 .2-.6-.5-1.5-.7-2.3-.7.4-1.5.8-2.1 1.3-.3.3-.4.9-.6 1.4-1.9 5.1-3.9 10.4-6.1 16.2zm-20.8-.6h-.7c-.4-1-.8-2-1.2-2.9-1.7-4.6-3.3-9.2-5.1-13.8-.3-.7-1.5-1.1-2.3-1.7-.2.9-.9 1.9-.6 2.6 2.5 7.2 5.2 14.4 7.9 21.5.3.7 1.1 1.3 1.7 1.5.4.1 1.3-.7 1.5-1.3 2.8-7.3 5.5-14.6 8.1-22 .2-.6-.5-1.5-.7-2.3-.7.4-1.5.8-2.1 1.3-.3.3-.4.9-.6 1.4-1.9 5.2-3.9 10.4-5.9 15.7zm196.6-128.4h.5c.2-1.2.2-2.4.6-3.5 2.7-7 3.7-14.6 7.7-21.2.2-.3.3-.6.4-.9.5-2-.2-2.9-2.2-2.7-1.1.1-2.2.2-3.2.2-3.8.1-3.8 0-3.8 3.7v22c-.1.9-.1 1.7 0 2.4zM345 280.6c0 3.1 0 6.2.1 9.2 0 .7.8 1.3 1.2 1.9.5-.6 1.2-1.2 1.6-1.9.3-.5.1-1.3.1-2v-12.7c0-5.3 0-5.3 5.3-5.7h.5c.7-.5 1.4-1.1 2.1-1.7-.7-.5-1.3-1.4-2-1.4-5-.1-10-.1-15 0-.7 0-1.3 1-1.9 1.5.6.5 1.2 1.4 1.9 1.6 1.2.3 2.5.2 3.7.1 1.7-.1 2.4.7 2.4 2.4v8.7zm-100.4-1.7v10c0 1.9.7 3.1 2.8 3.1 3.4 0 6.8.1 10.2-.1.7 0 1.4-1 2.2-1.6-.7-.5-1.4-1.4-2.2-1.5-1.9-.2-3.8-.1-5.7-.1-3.9 0-3.9 0-3.9-3.8 0-5.2.1-10.5-.1-15.7 0-.9-.9-1.9-1.4-2.8-.6.9-1.6 1.8-1.7 2.8-.3 3.2-.2 6.5-.2 9.7zm91.4-2.3v-2c0-2.2.1-4.5-.1-6.7-.1-.7-1-1.2-1.6-1.8-.4.6-1 1.2-1.2 1.9-.2.7-.1 1.5-.1 2.2 0 4.4.1 8.8-.1 13.2-.1 3.3-1.9 5.1-4.5 5.3-2.8.2-4.5-1.2-5.5-4.3-.3-.8-1.2-1.3-1.8-1.9-.4.9-1.2 1.8-1.1 2.6.5 4 4.4 7.2 8.2 6.9 4.3-.3 7.6-3.5 7.8-7.7.1-2.6 0-5.2 0-7.7zM314.6 292c2.7 0 3.1-.8 1.9-3.3-.4-.8-.5-1.8-.5-2.6 0-4.6-.1-9.1 0-13.7 0-1.2.7-2.5.9-3.7.1-.8-.1-2.3-.3-2.3-1.4-.2-2.9-.2-4.3 0-.2 0-.4 1.5-.3 2.3.2 1.3.9 2.6.9 4 .1 4.4.1 8.8 0 13.2 0 1-.2 2-.6 2.9-1.1 2.3-.6 3.2 2.3 3.2zm-92.8 166.4c3.9 2.6 18.6 5.7 21.4 4.9-7.3-1.6-14.3-3.3-21.4-4.9zm67.7-24.7c-.1-.1-.2-.1-.4-.2-3.2 5.2-6.4 10.3-9.7 15.5l.6.3c3.2-5.2 6.3-10.4 9.5-15.6zm3.8 12c2-1.1 2.2-3.9 1.6-10.2-.5 3.3-1.1 6.8-1.6 10.2zm-93.4-19.9v6h.6c-.2-2.2-.5-4.3-.6-6zM239.9 19.3c-.5.7-1 1.4-1.6 2-1.3 1.5-2.8 1.5-4 .1-2.7-3.3-3.3-9.5-1.3-13.2 1.4-2.6 2.9-2.7 4.6-.3.3.5.6 1.2 1.1 1.3.8.2 1.8 0 2.7 0 0-.8.2-1.9-.2-2.4-1-1.3-3.4-2.4-2.2-4.2.9-1.4 3.1-2.4 4.8-2.6 2.5-.2 5.1.1 7.5 1 2.5.9 2.6 3.1.7 4.9-1 .9-2.5 1.8-1 3.2 1.4 1.2 2.6 0 3.5-1.2 2.1-2.6 4.1-2.3 5.3.8 1.3 3.3-.1 10.2-2.7 12.7-1.5 1.5-2.6.7-3.8-.5-.6-.6-1.5-1-2.3-1.4-.2 1-.7 2-.6 3 .4 3.2 4.1 6.9 7.9 7.4 2.3.3 4.8.2 7.1-.3 1.1-.2 2.4-1.5 2.9-2.6 1.9-4.4 7.8-5.5 11.2-2 1.3 1.4 3 2.6 4.7 3.4 3.9 1.8 6.5 4.8 8.5 8.5.6 1.1 1.6 2.1 2.6 2.8 5 3 5.2 8.1.5 11.5-1.1.8-2 2-2.7 3.2-3.6 6.4-7 12.9-10.6 19.2-.8 1.4-.9 2.4.3 3.7 2.5 2.7 2.5 6 .2 8.6-1.3 1.4-1.8 2.9-1.7 4.7.1 3.9-1.3 5.1-5.1 4-11.6-3.1-23.4-3.8-35.2-3-8.4.5-16.7 1.9-25 3.1-4.5.6-5.2.1-5.9-4.3-.2-1.2-1.1-2.4-2-3.3-1.9-2-3-4.4-1.6-6.8 1.9-3.3.6-6.1-.8-8.9-3-6.1-6-12.3-9-18.3-.5-1.1-1.5-2-2.4-2.9-2.7-2.8-2.8-6 0-8.5 2-1.8 3.3-3.8 4.5-6.1 2-3.7 4.9-6.7 9.1-8.1 1-.3 1.9-1.3 2.6-2.1 1.8-2.1 4-3.4 6.8-2.9s4.7 2.2 5.6 5.1c.2.8 1.2 1.8 1.9 1.9 6.4 1.1 12.4-.6 15.5-6.7.5-1 .4-2.3.6-3.4-.4.1-.7 0-1-.1zm-17.4 32.8c.6-.3.9-.4 1.2-.6 2-1.7 2.8-1.5 3.4 1.1.6 2.2 1 4.4 1.3 6.6.1.6-.1 1.7-.5 2-.4.3-1.4 0-2-.2-.4-.1-.8-.4-1.2-.7-.2.1-.3.2-.5.3 2.1 4.2 4.2 8.4 6.4 12.5 1.1 2.1 3.1 2.8 5.3 2.3 2.2-.4 3-2.1 3.5-4.1 1.1-5-.5-9.5-2.4-14-2.2-5.5-5.2-10.7-4.7-16.9.1-1.7-1.1-1.9-2.5-2.1-3.3-.6-6.7-1.2-9.9-2.2-5.2-1.7-10.7-.9-13.4 2.5-3.1 4-3.9 8.7-1.9 13.2 3.2 7.1 7.1 13.9 10.9 20.7.5.9 1.7 1.7 2.7 2.1 2.5 1.1 4.4-.4 4-3.1-.2-1.6-.7-3.2-1.3-4.8-.6-2-1.4-3.9-2.1-5.9-.3-.1-.5-.1-.8-.2-.1.3-.2.7-.4.9-.5.6-1.1 1.1-1.6 1.7-.5-.7-1.2-1.3-1.6-2-1-2-1.9-4.1-2.6-6.2-.4-1.2-.4-2.5-.6-3.7 1.2.3 2.4.6 3.7.8.1 0 .2-.1.3-.2-2.6-3.9-2.1-4.8 2.6-5.4h.5c5.5-.6 6.1-1.4 4.2 5.6zm49.7 7.4c-1.5 4.1-3.1 7.9-4.3 11.8-.3.8.7 2.8 1.5 3 1.1.3 2.7-.2 3.8-.8.8-.4 1.1-1.6 1.6-2.5 2.2-4 4.3-8 6.5-12.1 1.5-2.8 3.4-5.6 4.6-8.6 2.9-7.4-.3-14.5-9.1-14.2-3 .1-5.9.7-8.9 1.1-2.5.3-4.9.9-7.4 1.1-1.5.1-2.1.7-2.4 2.2-.7 3.6-1.5 7.1-2.6 10.6-1.9 5.9-4.5 11.7-3.8 18.2.3 3.4 1.1 4.5 4.3 5.1 2.7.5 4.4-.5 5.6-3.3 1.4-3.2 2.9-6.4 4.2-9.6.3-.7.4-1.4.6-2.1-1.4.1-2.5.3-3.5.4 0-1.3-.2-2.6 0-3.8.3-1.6.8-3.3 1.6-4.7.3-.6 1.4-.8 2.2-1 .4-.1 1 .3 1.8.6-.2-.8-.1-1.3-.4-1.7-1.2-1.9-.1-3.1 1.6-3.1 2.8.1 5.5.7 8.3 1.1.2 0 .4.3.5.5.3 2.7 1.3 5.4-.4 8.1-.5.8-.8 1.8-1.2 2.7-1.3 3-1.3 3-4.7 1zm-26.7-12.2c1.5-.4 2.9-.5 3.9-1.1.8-.5 1.6-1.6 1.6-2.5 0-.9-.8-2-1.6-2.6-2.1-1.4-6.6-1-8.5.6-1.4 1.2-1.7 2.7 0 3.7 1.5 1 3.2 1.4 4.6 1.9zm3.4 33.1c0-2.3-1.2-3.7-3.2-3.7-2.1 0-3.6 1.3-3.6 3 0 1.6 2 3.3 3.8 3.2 1.6-.2 3.2-.5 3-2.5zm14.2 4.1c1-1.7 1.7-2.7 2-3.8.1-.4-.9-1.6-1.4-1.6-1.8 0-2.3 1.5-2.4 2.9 0 .5.8 1.1 1.8 2.5zM229 83.2c.6-1.8.2-3.2-1.6-3.8-.5-.1-1.8.7-1.8 1 .1 2 1.6 2.6 3.4 2.8zM201.1 155h10.5c2 0 3.6.6 3.8 2.7.2 2.3-1.6 3.1-3.4 3.2-2.8.3-5.7.2-8.5.2H195c-1.6 0-2.5.6-2.4 2.3.1 2.8 0 5.7 0 8.5 0 1.5.6 2.1 2.1 2.1h6.5c8.7.1 16.3 7.7 16.4 16.3 0 8.2-7.7 15.6-16.2 16-7.4.3-13-2.4-16.6-8.9-1.1-2-1.5-4.6-1.6-6.9 0-.9 1.5-2.6 2.5-2.7 1-.2 2.4 1 3.3 1.9.6.6.5 1.9.8 2.8.9 3.8 4.3 6.9 8.2 7.4 4.8.7 8.8-.5 11.5-4.8 2.2-3.4 2.1-7.6-.2-10.8-2-2.7-4.8-4.1-8.1-4.2-3.3-.1-6.7 0-10-.1-3.8-.1-4.9-1.3-5-5v-16c0-3.1 1-4 4-4.1 3.5.1 7.2.1 10.9.1zM162.4 155h11c2 0 3.3.8 3.5 2.8.2 1.9-1.2 2.8-2.8 3-2.6.3-5.3.3-8 .3-3.2.1-6.3.1-9.5 0-1.8 0-2.6.5-2.6 2.4.1 2.7.1 5.5 0 8.2 0 1.6.6 2.3 2.2 2.2 2-.1 4 .1 6 0 8.5-.6 16.6 7.5 16.7 16.4.1 8.4-7.9 15.6-16.8 15.9-7.4.2-12.7-2.8-16.2-9.2-1-1.9-1.3-4.3-1.5-6.4-.2-1.7 1-3.1 2.7-2.9 1.2.1 2.3 1.2 3.3 2.1.4.4.4 1.2.5 1.9 1 4.7 4.3 7.8 8.7 8.4 5.7.7 9.8-1.5 11.9-6.2 2.7-6.2-1.7-13.1-8.7-13.6-3.3-.2-6.7 0-10-.1-4.2-.1-5.3-1.2-5.4-5.4v-15.7c0-2.9 1-3.9 3.9-4 3.8-.1 7.5-.1 11.1-.1zM225.9 406.7v-.5c0-7.9-.7-6.7 6.4-9.9 4.4-2 9.3-3 14-4.2.9-.2 2.3 0 3 .6 4.4 3.9 8.7 7.9 12.9 12 .5.5.5 2.3 0 3-3.3 4.9-6.7 9.7-10.2 14.5-.6.8-2.3 1.5-3.3 1.3-6.6-1.1-13.1-2.5-19.6-3.6-1.6-.3-2.6-1-2.7-2.7-.2-3.5-.4-7-.7-10.4.1-.1.2-.1.2-.1zM224.6 399.4c-2.7-.2-5.3-.4-8-.5 0-.3 0-.6.1-.9 2.7-.9 5.3-.2 8 .5-.1.3-.1.6-.1.9z"/></svg>