<svg id="PATROON_HOME_SHIRT" xmlns="http://www.w3.org/2000/svg" viewBox="0 0 4424 518.5"><defs><style>.cls-1{fill:#1e2024}</style></defs><g><path class="cls-1" d="M3805.8,259.26l652.48,1.56v-93.84c-25.21-.46-50.78-.57-76.68-.43l-15.38,.08c-16.11-.6-74.04-1.38-91.98-1.35-17.93,.03-53.52-1.31-63.75-1.98-10.24-.67-8.73-2.25,3.36-3.52l.48,.07c15.37,2.32,35.99,.26,54.53,1.29,19.69,1.09,45.82,.04,69.14-.08,7-.04,14.69-.35,20.88-.06l53.43,2.47c15.63,.08,31.26,.17,45.97,.28v-48.61c-11.4-.89-30.91-2.68-38.04-3.39-9.71-.98-1.47-2.01,18.31-2.29,5.42-.08,12.45,.18,19.73,.61V39.53c-17.18-.04-33.58,.41-47.02,1.32-25.61,1.73-52.01,2.2-72.01,1.38-31.75-1.3-62.06-.99-93.29-1.22-19.38-.14-43.3-.24-56.34-1.76-5.03-.59-9.79-1.25-14.61-1.9-10.82,.04-21.37,.09-31.3,.14,0,0-15.1,.08-42.53,.18-1.6,1.11-4.28,2.29-6.34,2.89-4.35,1.26-51.72-.16-65.56-.94-13.83-.78-61.39-.14-76.33-.26-14.94-.12-48.13-.41-73.78-.65l-19.83,1.19-49.23,2.94c-19.4-1.33-33.71-3.13-43.35-4.81-20.87-.03-41.73-.04-62.59-.09,3.84-.69,5.2-1.36,2.47-1.74-4.18-.58-24.68-2.03-33.04-1.49-4.76,.31,.07,1.97,6.89,3.17-26.67-.07-53.35-.13-80.02-.21-1.12-.92-8.88-2.52-18-2.47-7.57,.04-10.08,1.46-5.82,2.41-23.8-.07-47.61-.13-71.41-.19-4-1.24-38.09-4.59-55.7-4.38-19.63,.23-27.92,1.23-18.43,2.22,4.11,.43,12.47,1.24,20.92,2.01-16.36-.04-32.73-.04-49.09-.06-.65-1.42-5.66-4.59-10.57-4.08l-4.39,.08-24.84,.44c-27.3,.29-79.02-.28-114.93-1.27l-63.73,2.47c-15.57,.6-35.17,1.16-52.61-.95l-6.83-.83c-22.27,.51-30.78,1.71-18.91,2.67,11.87,.96,56.06,1.96,80.48,.79,11.4-.55,44.93,.1,79.83,.94-47.85,.63-95.7,1.88-143.71,2.15-10.03,.06-20.16,.04-30.32,0-5.07-1.31-19.8-3.98-38.48-5.72-23.49-2.19-118.86,1.53-146.98,.68-28.12-.85-94.66-1.12-85.8-.43,8.86,.69,31.92,4.31,57.37,4.63,8.77,.11,29.51,.36,53.75,.66-3.93,.1-7.91,.17-11.78,.3l-73.82,2.5c-79.53-.15-183.54-2.4-231.14-5.01l-33.37,1.68c-9.62,.48-17.44,.88-24.43,1.23-16.75-1.69-38.93-3.48-51.17-3.51-23.32-.06-42.6,.39-42.84,.99-.24,.6,13.15,2.32,30.09,2.95,6.7,.25,19.39,.68,33.01,1.12-9.49,.48-9.76,.49-9.76,.49-72.39-.42-136.97,.35-143.51,1.72-6.54,1.37,18.11,7.97,81.29,9.13,63.18,1.16,243.21-4.38,269.05-4.49l23.76,.05c139.43,.32,278.86,.66,418.29,1,139.43,.34,179.26,.44,179.26,.44,131.46,.34,300.1-.49,374.76-1.85,74.66-1.36,338.02,1.46,417.36,3.1l72.54,.71,74.15,.72c81.94,.93,118.93,2.13,82.22,2.66-36.72,.53-192.54,4.45-268.72,5.64-76.18,1.18-338.76-1.92-423.2-3.18-84.45-1.25-379-.76-472.19-1.13-93.19-.37-423.29,2.68-531.26,2.94-56.25,.14-189.57,.26-322.99,.3-.23-.03-.33-.05-.58-.08l-5.52-.77c-3.07-1.35-12.49-2.43-20.94-2.38-8.45,.04-31.46,.86-28.46,1.7,1.19,.33,4.8,.94,9.36,1.56-106.4,.02-207.19,0-262.24-.12,0,0-10.96-.02-30.4-.06,1.38-.6,1.72-1.2-.33-1.52-4-.62-19.77-2.14-24.2-1.72-4.43,.42-18.15,1.33-20.51,1.07-2.36-.26-11.54-.8-12.77-.37-.72,.25,5.62,1.4,12.83,2.44-65.38-.14-167.39-.36-283.12-.64-210.86-.51-390.93-.94-390.93-.94-131.47-.32-258.87,.81-283.12,2.49-24.25,1.69-195.03,5.19-316.39,7.57l-103.67-2.62c-180.47-4.56-360.43-2.64-540.36-3.68l-71.88-.42c-81.29,1.83-152.4,3.94-158.03,4.68-5.63,.74-17.05,3.63-11.36,4.59l5.33,.02c131.45,.41,262.91,.68,394.37,1.05l22.29,.06c24.25,1.83-47.81,3.1-160.12,2.83l-102.1-.25-107.56-.26c-118.32-.28-260.5-.63-315.96-.76-55.46-.13-201.67,0-201.67,.6,0,.6,27.46,2.23,61.01,2.31l30.5,.07c294.79,.71,589.59,1.39,884.38,2.15,41.83,.11,80.87,.74,122.58,3.04,42.7,2.36,92.55,7.43,148.07,1.16l17.73-2c40.26-.41,33.89-1.64-14.16-2.72-48.05-1.09-174.38-4.32-172.01-4.73,2.37-.4,114.59-1.61,245.84-2.67l324.82,1.01c131.46-.32,264.45-.07,295.52,.56,31.07,.63,137.1,1.96,166.8,1.36,29.71-.6,129.04,4.6,158.79,4.83l27.89,.07c298.78,.72,657.29,1.64,657.29,1.64,131.46,.34,283.22,.03,337.25-.69l48.71,4.42c25.12,2.28,78.29,2.41,103.87,.25l49.84-4.21c53.81,1,205.4,2.05,336.87,2.34,0,0,239.02,.51,478.04,1.09l27.1,.06c29.81,.07,55.98,1.62,56.65,2.19,.67,.57-106.34,.77-237.81,.46l-425.79-1.02c-131.47-.32-239.15,.34-239.29,1.47-.15,1.12,88.3,4.87,196.95,5.13,108.66,.26,394.7,1.28,394.86,1.7,.16,.41-14.11,1.96-32.04,2.53l-15.66-.24c-58.64-.92-113.59,1.45-169.99,2.82l-52.15,1.26c-58.05,.94-163.37,3.1-234.03,4.8l-65.18-.4-52.51-.32c-46.45,3.67-113.34,6.74-148.66,6.83-35.32,.09-160.72,1.71-198.66,1.24-37.94-.47-176.9,1.22-230.91,1.2-54.01-.02-267,2.79-359.68,3.01-92.67,.22-383.82,.07-441.49-1.05l-52.02-1.42-52.2-1.42c-58.71-1-127.46-2.02-152.77-2.27l-23.79-.06-103.58-.26c-113.75-.08-314.38,.06-445.85,.31l-277.96,2.23c-131.3-.95-346.29-1.99-477.75-2.32l-286.85-.23c-131.45-.4-286.27,.25-344.04,1.44l-52.84,.44-50.28,.42c-62.13-.38-102.99,.76-90.78,2.53l5.21,.02,111.52,.37c122.32,.57,271.08,1.73,330.57,2.57,59.5,.85,267.41,2.47,329.22,3.12,61.81,.65,329.51-.65,460.99-.6l433.31-2.57c131.29,.98,250.93,1.8,265.88,1.83,14.94,.03,53.28,1.5,47.95,3.17-5.33,1.67-34.22,6.72-49.71,6.69-15.5-.04-59.64,.99-36.32,2.43,23.32,1.44,74.03,4.92,73.47,5.33-.56,.41-19.04,1.56-39.82,1.66-20.78,.1-78.69,1.11-79.63,2-.94,.89,37.1,3.92,87.35,4.04,50.25,.12,186.21,1.58,196.69,2.98,3.99,.53,17.99,1.34,37.36,2.13-1.27,.31-2.04,.57-1.01,.59,.85,.02,2.81-.19,4.94-.45,31.39,1.23,75.16,2.37,114.56,2.3l59.3,.78,52.35,.69c58.05,1.87,111.35,4.22,118.44,5.22,7.09,1,39.62,3.97,55.37,4.23,15.76,.26,57.12,1.31,56.9,1.76-.21,.45-30.75,1.66-67.39,1.68-36.64,.02-168.55-.27-212.19,.16-2.37,.02-5.07,.06-7.87,.11-4.22-.99-11.53-1.7-18.38-1.66-8.45,.04-31.46,.86-28.46,1.7,.77,.21,2.57,.55,4.96,.92-52.55,1.42-119.09,3.75-127.88,4.11l-10.94-.04c-160.51-.62-319.52,4.64-480.58,2.2l-34.02-.51c-38.4,1.56-39.42,3.18-2.26,3.6l33.82,.06c259.94,.48,539.99,3.14,539.99,3.14,131.17,1.25,346.05,2.47,477.52,2.72,0,0,286.78,.55,549.7,1.18,262.92,.63,549.74,1.34,549.74,1.34,131.46,.32,242.25,.7,246.19,.84,3.94,.14,27.22,1.9,7.68,2.24-19.53,.34-164.68,.35-296.15,.07l-1015.79-2.68c-131.46-.36-289.44,.72-351.07,2.4l-57.74,.29c-56.65,.28-117.37-3.37-170.51,2.54-7.05,.79-23.25-.02-35.18,.04-140.26,.73-280.48,1.91-420.77,2.11-143.37,.2-191.24,0-191.24,0-131.42-.57-316.16-.08-410.52,1.08-94.37,1.17-372.23,1.02-405.44,1.7-33.21,.68-95.18,10.08-90.49,10.8,4.7,.72,58.3,4.68,101.01,6.01l39.96-4.8c11.36-1.37,37.6-.57,57-.55l55.77,.07c61.3,.23,185.24-.17,275.43-.89,90.19-.72,382.41-3.64,448.21-6.43l47.83,3.34,43.77,3.05c43.36-.28,131.41-.97,195.67-1.53,64.26-.56,340.63-.61,472.1-.32,0,0,605.52,1.34,1027.8,2.35l38.6,.09c42.46,.1,41.11,1.65-3,3.43-44.1,1.79-273.12,2.6-404.58,2.24l-533.96-1.55c-131.47-.25-244,.19-250.05,.98-6.06,.79,49.47,7.32,163.59,9.29l90.71-6.72c15.21-1.13,39.17-.07,59.09-.02l43.82,.11c48.17,.07,157.51,1.19,242.97,2.49,85.46,1.3,382.18,2.35,467.47,2.53,85.29,.17,313.98,1.39,315.56,2.25,1.59,.85-1.08,4.31-11.85,4.5-10.76,.19-145.04-.03-276.49-.44,0,0-270.91-.84-525.88-.92-168.13-.05-265.01,.7-265.01,.7-131.27,1.02-301.95,2.08-379.3,2.37-77.34,.29-334.69,.93-400.45,.91-65.76-.02-306.59,.09-389.32,1.2l-72.73,3.04c-10.66,.45-21.81,.88-32.83,.93-136.32,.61-170.2,.85-170.2,.85-131.3,.94-293.12,2.61-359.6,3.71l-60.78,.45-61.89,.46c-68.27,1.35-100.17,2.74-70.89,3.11l25.52-.57c60.12-1.35,117.99,1.35,167.5,4.26,58.49,3.44,107.23,3.32,164.34,1.08l32.69-1.28c39.36,.19,179.15,.41,310.63,.49l1281.32-.33c131.4,.64,312.76,.76,403.03,.26,90.26-.5,375.64-.93,433.43-.72l52.99,2.81c18.02,.95,37.64,1.05,57.78,1.05-13.59-1.1-24.75-2.53-30.26-2.91-9.09-.64,57.47-.78,85.85-.11,28.38,.67,122.38-3.65,146.59-1.61,24.21,2.04,42.97,5.62,42.66,6.18-.31,.57-19.23,.93-42.04,.81-14.66-.08-71.83-.41-117.63-.68,4.74,.31,9.5,.61,14.1,1.05l15.61,1.48c34.51-.59,58.33-.32,52.93,.59-5.39,.92,5.46,5.17,35.34,7.55,29.88,2.38,133.28-1.91,149.86-2.2l15.39-.03c243.83-.52,492.43-.95,492.43-.95,11.49-.02,23.8-.04,36.46-.05,5.36-.4,15.72-.75,23.19-.83,11.31-.13,20.01,.22,21.74,.78,6.52,0,13.25,0,19.95-.01-1.46-.45-1.19-.99,2.15-1.4h3.66l17.53-.06c18.53,.68,53.29-1.35,63.5-1.28,10.21,.07,44.04,.5,51.05,1.57,3.25,.5-.94,.85-7.28,1.14,89,.01,178.6,.09,246.13,.24ZM2109.33,68.14c-.28,.3-31.67,1.02-43.31,1-11.64-.03-20.78-.48-20.33-1.01,.46-.53,11.03-1.71,22.48-1.46,11.45,.25,41.43,1.17,41.16,1.47Zm801.17,3.02c-16.01-.04-28.8-.49-28.42-1,.38-.51,14.33-1.71,30.18-1.53,15.85,.18,57.45,.96,57.24,1.33-.21,.37-42.98,1.24-58.99,1.2Zm-138.12,70.43c6.3-1.13,25.74-.81,29.87-.45,4.12,.36,11.36,.17,13.37-.08,2-.25,20.62,.04,41.36,.65s147.57,1.09,174.27-.08c26.7-1.17,51.52-1.16,52.69-.78,1.17,.38,28.66,2.13,34.88,2.47,6.21,.34-.96,4.16-5.31,5.42-4.35,1.26-51.72-.16-65.55-.94-13.84-.77-61.39-.14-76.33-.25-14.94-.12-48.13-.41-73.78-.65l-19.83,1.19-49.23,2.94c-43.38-2.98-62.71-8.3-56.41-9.43Zm190.68-4.86c4.41-.44,20.53,1.06,24.65,1.68,4.12,.61-.7,2.35-5.09,3.02-4.39,.67-15.7,.73-25.12,.14-9.43-.59-29.13-3.61-27.94-4.04,1.19-.44,10.53,.09,12.94,.34,2.41,.25,16.14-.7,20.56-1.13Zm-759.88,6.28l63.73-2.47c35.92,.99,87.63,1.56,114.93,1.27l24.84-.44,4.39-.08c5.09-.53,10.3,2.89,10.67,4.23,.37,1.34-18.73,2.38-42.43,2.33-23.7-.06-149.56-4.33-173.98-3.16-24.42,1.17-68.61,.17-80.48-.79-11.87-.96-3.36-2.16,18.91-2.67l6.83,.83c17.44,2.11,37.04,1.55,52.61,.95Zm291.95,4.4c3.72-.02,25.2-.73,29.18-1.48,.18-.03-.17-.11-.17-.15,18.13,.25,53.4,.94,53.19,1.28-.24,.37-43.06,1.24-59.07,1.2-16.01-.04-28.9-.49-28.65-1.01,.02-.04,.56-.09,.71-.13,2.27,.17,4.12,.29,4.8,.29Zm-597.91-.47c-25.44-.31-48.5-3.93-57.37-4.63-8.86-.69,57.68-.42,85.8,.43,28.13,.85,123.49-2.87,146.99-.68,23.49,2.19,41.01,5.88,40.51,6.45-.51,.57-19.53,.81-42.27,.54-22.74-.27-148.22-1.79-173.66-2.11Zm-196.89-5.96c17.74,1.4,32.79,4.54,32.92,5.02,.13,.47-14.23,.59-31.91,.27-17.68-.33-18.74-6.68-1.01-5.28Zm358.66-.93c5.36,1.45-22.49,.48-27.61,.14-5.13-.34-7.39-1.26-5.03-2.03,2.36-.77,27.29,.44,32.64,1.89Zm838.54-2.18c-.05-.12,6.76-.26,9.36-.28,2.6-.02,4.76,.06,4.81,.18,.05,.12-6.68,.48-9.27,.5-2.6,.02-4.85-.27-4.89-.39Zm-1461.62-1.25c36.12-.27,72.25-.54,108.38-.81-35.87,1.38-71.97,2.85-108.38,.81Zm-158.41-.74c38.03-.28,60.01-.45,81.98-.61-22,1.49-44.18,2.57-81.98,.61Zm-71.75-13.04c11.53-.09,34.06,2.49,38.76,3.44,4.71,.95,60.08,4.82,80.06,3.73,19.98-1.09,28.79-4.14,25.93-4.95-2.86-.82,5.72-1.64,8.58-1.68,2.86-.04,12.32,1.73,15.06,2.43,2.75,.7,15.41,1.19,18.63,1.16,3.21-.02,6.29,1.07,6.84,2.43,.55,1.36-49.98,3.77-68.77,3.21-18.79-.55-40.08-.17-42.21,.13-2.13,.3-39.73-1.72-51.45-1.26-11.72,.46-39.13,3.51-43.86,4.22-4.73,.71-15.89-1.05-17.43-1.54-1.54-.49-34.09-2.34-48.11-2.99-14.02-.65,8.98-2.23,16.2-2.45,7.22-.22,15.13-2.98,15.85-3.89,.71-.91,34.37-1.91,45.91-1.99Zm442.67,6.74c-.14-.35,2.02-.66,2.89-.67,.87,0,1.95,.92,2.09,1.27,.14,.35-.45,.65-1.32,.65-.87,0-3.52-.91-3.66-1.26Zm-133.22-1.94c-6.05,.04-36.28-2.2-45.03-2.98-8.75-.79-2.41-1.06,14.09-.61,16.5,.45,57.65,2.2,57.39,2.63-.26,.43-20.4,.92-26.45,.97Zm103.33-1.7c-.14-.35,2.02-.66,2.89-.67,.87,0,1.95,.92,2.09,1.27,.14,.35-.45,.65-1.32,.65-.87,0-3.52-.91-3.66-1.26Zm-176.9-.55c-.15,.53-20.52,1.12-27.82,1.17-7.3,.05-13.19-.37-13.08-.94,.11-.57,21.57-2.32,28.65-2.37,7.08-.05,12.4,1.61,12.25,2.14Zm-129.41-.77c-.1,.31-18.46,.93-25.32,.84-6.86-.08-12.3-.63-12.23-.81,.07-.18,18.31-.46,25.2-.51,6.9-.05,12.46,.16,12.35,.48Zm1001.84-4.5c.87,0,3.52,.91,3.66,1.26,.14,.35-2.02,.66-2.89,.67-.87,0-1.95-.92-2.09-1.27-.14-.35,.45-.65,1.32-.65Zm996.01-3.22c5.75,.74-18.56,1.56-28.58,1.64-10.02,.07-14.46-.6-9.87-1.51,4.59-.9,32.7-.87,38.45-.13Zm119.36,.22c-.74,.72-50.45,2.31-68.16,2.44-17.71,.13-30.31-1.57-29.77-2.08,.53-.51,47.61-1.28,65.95-1.41,18.34-.14,32.73,.34,31.99,1.06Zm-272.86,2.39c.17,.42-11.03,2.05-13.52,2.01-2.49-.04,4.16-1.39,7.37-1.88,3.21-.49,5.97-.54,6.14-.13Zm506.94-8.39c18.08,1.37,33.69,4.51,33.88,4.98,.19,.48-14.29,.63-32.17,.35-17.88-.29-19.79-6.7-1.71-5.33Zm686.16,5.29c-23.93,0-151.51-4.01-176.01-2.77-24.49,1.24-69.22,.34-81.33-.6-12.11-.94-3.68-2.17,18.73-2.74l7,.82c17.88,2.09,37.58,1.48,53.22,.83l63.99-2.65c36.38,.91,88.65,1.36,116.16,1l25.01-.5,4.42-.09c5.06-.55,10.78,2.9,11.32,4.25,.54,1.35-18.59,2.45-42.52,2.45Zm-311.11,1.95c-22.99-.22-149.83-1.45-175.55-1.7-25.72-.26-49.47-3.85-58.5-4.53-9.03-.68,58.16-.56,86.65,.23,28.5,.79,124.26-3.2,148.26-1.05,24,2.15,42.17,5.83,41.73,6.41-.44,.57-19.6,.86-42.59,.65Zm-478.33,3.36c-12.07-.05-68.08-1.71-85.27-2.32-17.19-.6-30.93-2.3-30.76-2.91,.16-.61,19.56-1.11,43.1-1.11,23.54,0,84.99,6.38,72.93,6.33Zm-576.64,.89c-4.34-.08-5.83-2.28-4.89-3.25,.93-.97,17.53,.6,21.27,1.16,3.74,.56,5.47,1.21,3.84,1.46-1.63,.25-15.87,.71-20.21,.63Zm-89.13,1.75c-13.19-1.03-11.36-4.3,1.47-4.4,12.83-.1,22.94,2.88,22.79,4.08-.15,1.21-11.07,1.35-24.26,.32Zm-84.11-3.66c4.39,.1,7.7,.64,7.6,.81-.11,.18-11.55,.4-15.85,.44-4.31,.03-7.82-.19-7.8-.49,.02-.3,11.66-.85,16.05-.75Zm-80.98,6.01l-10.64-.57-27.56-1.47c-29.89,.5-70.64,.17-90.56-.73l-18.95-.61-19.11-.61c-21.84-.55-40.28-2.39-40.57-3.1-.29-.71,35.37-.49,48-.22,12.63,.27,61.89,.49,75.35,.31,13.45-.17,39.29,.35,57.42,1.16,18.13,.81,44.87,4.1,26.62,5.84Zm-565.69-3.59c25.55,.52,45.4,2.11,45,2.57-.41,.46-12.47,.69-26.8,.51-14.33-.18-80.56-1.85-92.13-2.33-11.58-.48,48.4-1.27,73.94-.74Zm196.31,6.87l-27.56-.72-30.64-.8c-34-.62,18.55-3.6,49.53-4.54,30.98-.95,65.66-.31,71.49,.56,5.82,.88-22.44,3.35-62.81,5.5Zm-303.86,1.29l-12.5-.27c-10.82-.23-25.3-1.37-31.62-.79l-55.61,5.11c-57.48-3.28-138.42-3.31-151.65-3.94-13.24-.63-69.38,1.61-84.69,.57-15.3-1.04-23.01-6.52-21.16-8.29,1.85-1.77,21.88-2.24,28.56-1.88,6.68,.36,42.45-.62,55.05-.43,12.6,.19,58.94,2.2,76.34,2.13,17.4-.07,69.68,.07,116.17,.3l39.66,2.37,2.12,.13c4.71-.6,1.35-2.05-1.62-2.45-2.97-.4,4.18-1.24,7.46-1.41,3.27-.17,9.77,1.05,14.44,2.72,4.67,1.67,44.24,3.54,47.16,4.63,2.91,1.09-9.74,1.77-28.11,1.51Zm2255,.58c-4.28-.11-7.44-.64-7.3-.81,.13-.17,11.6-.39,15.91-.42,4.31-.03,7.7,.19,7.54,.5-.16,.31-11.87,.84-16.15,.73Zm-800.79,3.58c.16-.31,11.87-.84,16.15-.73,4.28,.11,7.43,.64,7.3,.81-.13,.17-11.6,.39-15.91,.42-4.3,.03-7.7-.19-7.54-.5Zm113.24,10.37l-54.61,3.71c-11.89,.81-31.97,.22-45.88-.53-31.84-1.73-67.76-1.65-93.13,.06-25.62,1.73-52.01,2.2-72.01,1.38-31.75-1.3-62.06-.99-93.29-1.22-19.38-.14-43.3-.24-56.34-1.76-13.12-1.53-24.55-3.46-39.43-4.88l-1.91-.18c3.85-1.54,21.22-1.8,24.17-1.59,1.77,.12,46.55-.9,91.19-1.54-4.06-.55-7.24-1.08-8.36-1.38-3.14-.84,19.98-1.72,28.5-1.78,8.52-.06,18.17,1,21.44,2.35,0,0,.04,0,2.55,.35,12.99-.06,24.42-.03,32.62,.16,41.7,.97,111.49,4.61,121.59,5.42,10.1,.81,31.68-1.42,35.63-2.28,3.95-.86,21.55-.73,25.93-.49s56.43,.44,115.67,.44l53.08-.89,55.42-.92c59.01,1.19,136.44,1.98,150.29,1.92,13.85-.06-17.67,4.5-29.66,5.78-11.99,1.29-41.85,2.79-66.35,3.33-24.5,.54-137.05-3.79-197.11-5.46Zm-708.74,12.53c10.18,.13,43.82,.78,50.46,1.89,6.64,1.11-20.52,1.34-30.89,1.87-10.37,.53-53,.09-67.12,.27-14.11,.18-35.61-.98-39.17-1.45-3.56-.47-2.81-1.27,1.66-1.77h3.66l17.53,.08c18.28,.8,53.69-1.01,63.87-.88Zm1109.04,2.07c-4.5-.11-6.14-2.01-5.38-2.69,.76-.68,5.47-.7,10.47-.05,5,.65-.59,2.85-5.09,2.75Zm50.98-.56c-.77-.77,24.74-1.2,34.75-1.12,10.01,.08,10.83,.79,1.82,1.6-9.01,.8-35.8,.3-36.57-.47Zm-318.27,2.65l-14.54-.24c-15.78-.26-32.27-.08-48.16,.21l-20.03,.36c-15.01-2.59-10.78-4,9.4-3.13l13.91,.27,15.42,.3c17.32-.02,53.88-.08,62.46-.14,8.58-.06,16.18,2.06,16.39,2.81,.2,.75-15.47,.55-34.84-.44Zm-1599.78,6.25c-25.63,1.81-52.21,2.35-72.5,1.57-32.21-1.24-62.77-.85-94.31-1-19.58-.09-43.74-.14-57.1-1.64-13.44-1.51-25.23-3.43-40.44-4.83l-1.95-.18c3.68-1.56,21.18-1.87,24.19-1.66,3,.2,127.04-3.15,169.26-2.27,42.21,.88,113.13,4.39,123.42,5.18,10.29,.79,31.78-1.51,35.66-2.39,3.88-.87,21.66-.79,26.11-.56,4.45,.23,57.01,.31,116.8,.17l53.46-1.02,55.81-1.07c43.56,.77,96.71,1.3,127.85,1.49,.7,0,1.58,.01,2.25,.02,10.5,.06,18.28,.09,21.83,.06,13.97-.09-17.25,4.58-29.18,5.91-11.93,1.33-41.87,2.91-66.53,3.52-24.66,.61-138.82-3.5-199.65-5.03l-54.64,3.87c-11.9,.84-32.24,.3-46.38-.43-32.36-1.67-68.6-1.5-93.98,.29Zm862.15,77.9c.82,1.33-17.9,2.5-41.6,2.59-23.7,.09-150.87-3.39-174.87-2.06-24,1.32-68.48,.6-80.66-.28-12.19-.88-4.1-2.14,17.98-2.78l7.1,.78c18.14,2,37.53,1.32,52.88,.62l62.82-2.87c36.22,.76,88.07,1.01,115.24,.55l24.66-.59,4.35-.1c4.9-.56,11.28,2.83,12.1,4.16Zm102.61-.24c-3.72,.78-24.93,1.62-28.65,1.66-3.72,.04-36.82-2.77-46.64-3.7-9.82-.93-1.87-1.98,17.65-2.33,19.53-.35,61.35,3.6,57.64,4.37Zm76.2,.02c-10.96-.59-9.99-2.96-.32-3.07,9.67-.11,18.74,1.67,19.27,2.55,.54,.87-7.99,1.11-18.95,.53Zm90.56-4.13c8.16-.59,29.13,.73,33.51,1.28,4.37,.55,.08,1.85-9.54,2.88-9.62,1.03-32.13-3.57-23.97-4.16Zm139.13,7.27c-44.34-2.7-65.47-7.9-59.56-9.07,5.91-1.16,25.44-.97,29.68-.64,4.24,.33,11.41,.1,13.33-.16,1.92-.26,20.61-.09,41.54,.39,20.93,.47,147.78,.16,174.06-1.18,26.28-1.34,51.07-1.49,52.37-1.11,1.29,.37,29.36,1.95,35.68,2.25,6.32,.3,.46,4.16-3.45,5.45-3.92,1.29-51.72,.16-65.81-.53-14.08-.69-61.37,.25-76.33,.23-14.96-.02-48.22-.11-73.92-.18l-19.4,1.31-48.18,3.25Z"/><path class="cls-1" d="M631.75,67.36l-652.48-1.56v93.84c25.21,.46,50.78,.57,76.68,.43l15.38-.08c16.11,.6,74.04,1.38,91.98,1.35,17.93-.03,53.52,1.31,63.75,1.98,10.24,.67,8.73,2.25-3.36,3.52l-.48-.07c-15.37-2.32-35.99-.26-54.53-1.29-19.69-1.09-45.82-.04-69.14,.08-7,.04-14.69,.35-20.88,.06l-53.43-2.47c-15.63-.08-31.26-.17-45.97-.28v48.61c11.4,.89,30.91,2.68,38.04,3.39,9.71,.98,1.47,2.01-18.31,2.29-5.42,.08-12.45-.18-19.73-.61v70.54c17.18,.04,33.58-.41,47.02-1.32,25.61-1.73,52.01-2.2,72.01-1.38,31.75,1.3,62.06,.99,93.29,1.22,19.38,.14,43.3,.24,56.34,1.76,5.03,.59,9.79,1.25,14.61,1.9,10.82-.04,21.37-.09,31.3-.14,0,0,15.1-.08,42.53-.18,1.6-1.11,4.28-2.29,6.34-2.89,4.35-1.26,51.72,.16,65.56,.94,13.83,.78,61.39,.14,76.33,.26,14.94,.12,48.13,.41,73.78,.65l19.83-1.19,49.23-2.94c19.4,1.33,33.71,3.13,43.35,4.81,20.87,.03,41.73,.04,62.59,.09-3.84,.69-5.2,1.36-2.47,1.74,4.18,.58,24.68,2.03,33.04,1.49,4.76-.31-.07-1.97-6.89-3.17,26.67,.07,53.35,.13,80.02,.21,1.12,.92,8.88,2.52,18,2.47,7.57-.04,10.08-1.46,5.82-2.41,23.8,.07,47.61,.13,71.41,.19,4,1.24,38.09,4.59,55.7,4.38,19.63-.23,27.92-1.23,18.43-2.22-4.11-.43-12.47-1.24-20.92-2.01,16.36,.04,32.73,.04,49.09,.06,.65,1.42,5.66,4.59,10.57,4.08l4.39-.08,24.84-.44c27.3-.29,79.02,.28,114.93,1.27l63.73-2.47c15.57-.6,35.17-1.16,52.61,.95l6.83,.83c22.27-.51,30.78-1.71,18.91-2.67-11.87-.96-56.06-1.96-80.48-.79-11.4,.55-44.93-.1-79.83-.94,47.85-.63,95.7-1.88,143.71-2.15,10.03-.06,20.16-.04,30.32,0,5.07,1.31,19.8,3.98,38.48,5.72,23.49,2.19,118.86-1.53,146.98-.68,28.12,.85,94.66,1.12,85.8,.43-8.86-.69-31.92-4.31-57.37-4.63-8.77-.11-29.51-.36-53.75-.66,3.93-.1,7.91-.17,11.78-.3l73.82-2.5c79.53,.15,183.54,2.4,231.14,5.01l33.37-1.68c9.62-.48,17.44-.88,24.43-1.23,16.75,1.69,38.93,3.48,51.17,3.51,23.32,.06,42.6-.39,42.84-.99,.24-.6-13.15-2.32-30.09-2.95-6.7-.25-19.39-.68-33.01-1.12,9.49-.48,9.76-.49,9.76-.49,72.39,.42,136.97-.35,143.51-1.72,6.54-1.37-18.11-7.97-81.29-9.13-63.18-1.16-243.21,4.38-269.05,4.49l-23.76-.05c-139.43-.32-278.86-.66-418.29-1-139.43-.34-179.26-.44-179.26-.44-131.46-.34-300.1,.49-374.76,1.85-74.66,1.36-338.02-1.46-417.36-3.1l-72.54-.71-74.15-.72c-81.94-.93-118.93-2.13-82.22-2.66,36.72-.53,192.54-4.45,268.72-5.64,76.18-1.18,338.76,1.92,423.2,3.18,84.45,1.25,379,.76,472.19,1.13,93.19,.37,423.29-2.68,531.26-2.94,56.25-.14,189.57-.26,322.99-.3,.23,.03,.33,.05,.58,.08l5.52,.77c3.07,1.35,12.49,2.43,20.94,2.38,8.45-.04,31.46-.86,28.46-1.7-1.19-.33-4.8-.94-9.36-1.56,106.4-.02,207.19,0,262.24,.12,0,0,10.96,.02,30.4,.06-1.38,.6-1.72,1.2,.33,1.52,4,.62,19.77,2.14,24.2,1.72,4.43-.42,18.15-1.33,20.51-1.07,2.36,.26,11.54,.8,12.77,.37,.72-.25-5.62-1.4-12.83-2.44,65.38,.14,167.39,.36,283.12,.64,210.86,.51,390.93,.94,390.93,.94,131.47,.32,258.87-.81,283.12-2.49,24.25-1.69,195.03-5.19,316.39-7.57l103.67,2.62c180.47,4.56,360.43,2.64,540.36,3.68l71.88,.42c81.29-1.83,152.4-3.94,158.03-4.68,5.63-.74,17.05-3.63,11.36-4.59l-5.33-.02c-131.45-.41-262.91-.68-394.37-1.05l-22.29-.06c-24.25-1.83,47.81-3.1,160.12-2.83l102.1,.25,107.56,.26c118.32,.28,260.5,.63,315.96,.76,55.46,.13,201.67,0,201.67-.6,0-.6-27.46-2.23-61.01-2.31l-30.5-.07c-294.79-.71-589.59-1.39-884.38-2.15-41.83-.11-80.87-.74-122.58-3.04-42.7-2.36-92.55-7.43-148.07-1.16l-17.73,2c-40.26,.41-33.89,1.64,14.16,2.72,48.05,1.09,174.38,4.32,172.01,4.73-2.37,.4-114.59,1.61-245.84,2.67l-324.82-1.01c-131.46,.32-264.45,.07-295.52-.56-31.07-.63-137.1-1.96-166.8-1.36-29.71,.6-129.04-4.6-158.79-4.83l-27.89-.07c-298.78-.72-657.29-1.64-657.29-1.64-131.46-.34-283.22-.03-337.25,.69l-48.71-4.42c-25.12-2.28-78.29-2.41-103.87-.25l-49.84,4.21c-53.81-1-205.4-2.05-336.87-2.34,0,0-239.02-.51-478.04-1.09l-27.1-.06c-29.81-.07-55.98-1.62-56.65-2.19-.67-.57,106.34-.77,237.81-.46l425.79,1.02c131.47,.32,239.15-.34,239.29-1.47,.15-1.12-88.3-4.87-196.95-5.13-108.66-.26-394.7-1.28-394.86-1.7-.16-.41,14.11-1.96,32.04-2.53l15.66,.24c58.64,.92,113.59-1.45,169.99-2.82l52.15-1.26c58.05-.94,163.37-3.1,234.03-4.8l65.18,.4,52.51,.32c46.45-3.67,113.34-6.74,148.66-6.83,35.32-.09,160.72-1.71,198.66-1.24,37.94,.47,176.9-1.22,230.91-1.2,54.01,.02,267-2.79,359.68-3.01,92.67-.22,383.82-.07,441.49,1.05l52.02,1.42,52.2,1.42c58.71,1,127.46,2.02,152.77,2.27l23.79,.06,103.58,.26c113.75,.08,314.38-.06,445.85-.31l277.96-2.23c131.3,.95,346.29,1.99,477.75,2.32l286.85,.23c131.45,.4,286.27-.25,344.04-1.44l52.84-.44,50.28-.42c62.13,.38,102.99-.76,90.78-2.53l-5.21-.02-111.52-.37c-122.32-.57-271.08-1.73-330.57-2.57-59.5-.85-267.41-2.47-329.22-3.12-61.81-.65-329.51,.65-460.99,.6l-433.31,2.57c-131.29-.98-250.93-1.8-265.88-1.83-14.94-.03-53.28-1.5-47.95-3.17,5.33-1.67,34.22-6.72,49.71-6.69,15.5,.04,59.64-.99,36.32-2.43-23.32-1.44-74.03-4.92-73.47-5.33,.56-.41,19.04-1.56,39.82-1.66,20.78-.1,78.69-1.11,79.63-2,.94-.89-37.1-3.92-87.35-4.04-50.25-.12-186.21-1.58-196.69-2.98-3.99-.53-17.99-1.34-37.36-2.13,1.27-.31,2.04-.57,1.01-.59-.85-.02-2.81,.19-4.94,.45-31.39-1.23-75.16-2.37-114.56-2.3l-59.3-.78-52.35-.69c-58.05-1.87-111.35-4.22-118.44-5.22-7.09-1-39.62-3.97-55.37-4.23-15.76-.26-57.12-1.31-56.9-1.76,.21-.45,30.75-1.66,67.39-1.68,36.64-.02,168.55,.27,212.19-.16,2.37-.02,5.07-.06,7.87-.11,4.22,.99,11.53,1.7,18.38,1.66,8.45-.04,31.46-.86,28.46-1.7-.77-.21-2.57-.55-4.96-.92,52.55-1.42,119.09-3.75,127.88-4.11l10.94,.04c160.51,.62,319.52-4.64,480.58-2.2l34.02,.51c38.4-1.56,39.42-3.18,2.26-3.6l-33.82-.06c-259.94-.48-539.99-3.14-539.99-3.14-131.17-1.25-346.05-2.47-477.52-2.72,0,0-286.78-.55-549.7-1.18s-549.74-1.34-549.74-1.34c-131.46-.32-242.25-.7-246.19-.84-3.94-.14-27.22-1.9-7.68-2.24,19.53-.34,164.68-.35,296.15-.07l1015.79,2.68c131.46,.36,289.44-.72,351.07-2.4l57.74-.29c56.65-.28,117.37,3.37,170.51-2.54,7.05-.79,23.25,.02,35.18-.04,140.26-.73,280.48-1.91,420.77-2.11,143.37-.2,191.24,0,191.24,0,131.42,.57,316.16,.08,410.52-1.08,94.37-1.17,372.23-1.02,405.44-1.7s95.18-10.08,90.49-10.8c-4.7-.72-58.3-4.68-101.01-6.01l-39.96,4.8c-11.36,1.37-37.6,.57-57,.55l-55.77-.07c-61.3-.23-185.24,.17-275.43,.89-90.19,.72-382.41,3.64-448.21,6.43l-47.83-3.34-43.77-3.05c-43.36,.28-131.41,.97-195.67,1.53-64.26,.56-340.63,.61-472.1,.32,0,0-605.52-1.34-1027.8-2.35l-38.6-.09c-42.46-.1-41.11-1.65,3-3.43,44.1-1.79,273.12-2.6,404.58-2.24l533.96,1.55c131.47,.25,244-.19,250.05-.98,6.06-.79-49.47-7.32-163.59-9.29l-90.71,6.72c-15.21,1.13-39.17,.07-59.09,.02l-43.82-.11c-48.17-.07-157.51-1.19-242.97-2.49-85.46-1.3-382.18-2.35-467.47-2.53-85.29-.17-313.98-1.39-315.56-2.25-1.59-.85,1.08-4.31,11.85-4.5,10.76-.19,145.04,.03,276.49,.44,0,0,270.91,.84,525.88,.92,168.13,.05,265.01-.7,265.01-.7,131.27-1.02,301.95-2.08,379.3-2.37,77.34-.29,334.69-.93,400.45-.91,65.76,.02,306.59-.09,389.32-1.2l72.73-3.04c10.66-.45,21.81-.88,32.83-.93,136.32-.61,170.2-.85,170.2-.85,131.3-.94,293.12-2.61,359.6-3.71l60.78-.45,61.89-.46c68.27-1.35,100.17-2.74,70.89-3.11l-25.52,.57c-60.12,1.35-117.99-1.35-167.5-4.26-58.49-3.44-107.23-3.32-164.34-1.08l-32.69,1.28c-39.36-.19-179.15-.41-310.63-.49l-1281.32,.33c-131.4-.64-312.76-.76-403.03-.26-90.26,.5-375.64,.93-433.43,.72l-52.99-2.81c-18.02-.95-37.64-1.05-57.78-1.05,13.59,1.1,24.75,2.53,30.26,2.91,9.09,.64-57.47,.78-85.85,.11-28.38-.67-122.38,3.65-146.59,1.61-24.21-2.04-42.97-5.62-42.66-6.18,.31-.57,19.23-.93,42.04-.81,14.66,.08,71.83,.41,117.63,.68-4.74-.31-9.5-.61-14.1-1.05l-15.61-1.48c-34.51,.59-58.33,.32-52.93-.59,5.39-.92-5.46-5.17-35.34-7.55-29.88-2.38-133.28,1.91-149.86,2.2l-15.39,.03c-243.83,.52-492.43,.95-492.43,.95-11.49,.02-23.8,.04-36.46,.05-5.36,.4-15.72,.75-23.19,.83-11.31,.13-20.01-.22-21.74-.78-6.52,0-13.25,0-19.95,.01,1.46,.45,1.19,.99-2.15,1.4h-3.66l-17.53,.06c-18.53-.68-53.29,1.35-63.5,1.28-10.21-.07-44.04-.5-51.05-1.57-3.25-.5,.94-.85,7.28-1.14-89-.01-178.6-.09-246.13-.24Zm1696.47,191.12c.28-.3,31.67-1.02,43.31-1,11.64,.03,20.78,.48,20.33,1.01-.46,.53-11.03,1.71-22.48,1.46-11.45-.25-41.43-1.17-41.16-1.47Zm-801.17-3.02c16.01,.04,28.8,.49,28.42,1-.38,.51-14.33,1.71-30.18,1.53-15.85-.18-57.45-.96-57.24-1.33,.21-.37,42.98-1.24,58.99-1.2Zm138.12-70.43c-6.3,1.13-25.74,.81-29.87,.45-4.12-.36-11.36-.17-13.37,.08-2,.25-20.62-.04-41.36-.65s-147.57-1.09-174.27,.08c-26.7,1.17-51.52,1.16-52.69,.78-1.17-.38-28.66-2.13-34.88-2.47-6.21-.34,.96-4.16,5.31-5.42,4.35-1.26,51.72,.16,65.55,.94,13.84,.77,61.39,.14,76.33,.25,14.94,.12,48.13,.41,73.78,.65l19.83-1.19,49.23-2.94c43.38,2.98,62.71,8.3,56.41,9.43Zm-190.68,4.86c-4.41,.44-20.53-1.06-24.65-1.68-4.12-.61,.7-2.35,5.09-3.02,4.39-.67,15.7-.73,25.12-.14,9.43,.59,29.13,3.61,27.94,4.04-1.19,.44-10.53-.09-12.94-.34-2.41-.25-16.14,.7-20.56,1.13Zm759.88-6.28l-63.73,2.47c-35.92-.99-87.63-1.56-114.93-1.27l-24.84,.44-4.39,.08c-5.09,.53-10.3-2.89-10.67-4.23-.37-1.34,18.73-2.38,42.43-2.33,23.7,.06,149.56,4.33,173.98,3.16,24.42-1.17,68.61-.17,80.48,.79,11.87,.96,3.36,2.16-18.91,2.67l-6.83-.83c-17.44-2.11-37.04-1.55-52.61-.95Zm-291.95-4.4c-3.72,.02-25.2,.73-29.18,1.48-.18,.03,.17,.11,.17,.15-18.13-.25-53.4-.94-53.19-1.28,.24-.37,43.06-1.24,59.07-1.2,16.01,.04,28.9,.49,28.65,1.01-.02,.04-.56,.09-.71,.13-2.27-.17-4.12-.29-4.8-.29Zm597.91,.47c25.44,.31,48.5,3.93,57.37,4.63,8.86,.69-57.68,.42-85.8-.43-28.13-.85-123.49,2.87-146.99,.68-23.49-2.19-41.01-5.88-40.51-6.45,.51-.57,19.53-.81,42.27-.54,22.74,.27,148.22,1.79,173.66,2.11Zm196.89,5.96c-17.74-1.4-32.79-4.54-32.92-5.02-.13-.47,14.23-.59,31.91-.27,17.68,.33,18.74,6.68,1.01,5.28Zm-358.66,.93c-5.36-1.45,22.49-.48,27.61-.14,5.13,.34,7.39,1.26,5.03,2.03-2.36,.77-27.29-.44-32.64-1.89Zm-838.54,2.18c.05,.12-6.76,.26-9.36,.28-2.6,.02-4.76-.06-4.81-.18-.05-.12,6.68-.48,9.27-.5,2.6-.02,4.85,.27,4.89,.39Zm1461.62,1.25c-36.12,.27-72.25,.54-108.38,.81,35.87-1.38,71.97-2.85,108.38-.81Zm158.41,.74c-38.03,.28-60.01,.45-81.98,.61,22-1.49,44.18-2.57,81.98-.61Zm71.75,13.04c-11.53,.09-34.06-2.49-38.76-3.44-4.71-.95-60.08-4.82-80.06-3.73-19.98,1.09-28.79,4.14-25.93,4.95,2.86,.82-5.72,1.64-8.58,1.68-2.86,.04-12.32-1.73-15.06-2.43-2.75-.7-15.41-1.19-18.63-1.16-3.21,.02-6.29-1.07-6.84-2.43-.55-1.36,49.98-3.77,68.77-3.21,18.79,.55,40.08,.17,42.21-.13,2.13-.3,39.73,1.72,51.45,1.26,11.72-.46,39.13-3.51,43.86-4.22,4.73-.71,15.89,1.05,17.43,1.54,1.54,.49,34.09,2.34,48.11,2.99,14.02,.65-8.98,2.23-16.2,2.45-7.22,.22-15.13,2.98-15.85,3.89-.71,.91-34.37,1.91-45.91,1.99Zm-442.67-6.74c.14,.35-2.02,.66-2.89,.67-.87,0-1.95-.92-2.09-1.27-.14-.35,.45-.65,1.32-.65,.87,0,3.52,.91,3.66,1.26Zm133.22,1.94c6.05-.04,36.28,2.2,45.03,2.98,8.75,.79,2.41,1.06-14.09,.61-16.5-.45-57.65-2.2-57.39-2.63,.26-.43,20.4-.92,26.45-.97Zm-103.33,1.7c.14,.35-2.02,.66-2.89,.67-.87,0-1.95-.92-2.09-1.27-.14-.35,.45-.65,1.32-.65,.87,0,3.52,.91,3.66,1.26Zm176.9,.55c.15-.53,20.52-1.12,27.82-1.17,7.3-.05,13.19,.37,13.08,.94-.11,.57-21.57,2.32-28.65,2.37-7.08,.05-12.4-1.61-12.25-2.14Zm129.41,.77c.1-.31,18.46-.93,25.32-.84,6.86,.08,12.3,.63,12.23,.81-.07,.18-18.31,.46-25.2,.51-6.9,.05-12.46-.16-12.35-.48Zm-1001.84,4.5c-.87,0-3.52-.91-3.66-1.26-.14-.35,2.02-.66,2.89-.67,.87,0,1.95,.92,2.09,1.27,.14,.35-.45,.65-1.32,.65Zm-996.01,3.22c-5.75-.74,18.56-1.56,28.58-1.64,10.02-.07,14.46,.6,9.87,1.51-4.59,.9-32.7,.87-38.45,.13Zm-119.36-.22c.74-.72,50.45-2.31,68.16-2.44,17.71-.13,30.31,1.57,29.77,2.08-.53,.51-47.61,1.28-65.95,1.41-18.34,.14-32.73-.34-31.99-1.06Zm272.86-2.39c-.17-.42,11.03-2.05,13.52-2.01,2.49,.04-4.16,1.39-7.37,1.88-3.21,.49-5.97,.54-6.14,.13Zm-506.94,8.39c-18.08-1.37-33.69-4.51-33.88-4.98-.19-.48,14.29-.63,32.17-.35,17.88,.29,19.79,6.7,1.71,5.33Zm-686.16-5.29c23.93,0,151.51,4.01,176.01,2.77,24.49-1.24,69.22-.34,81.33,.6,12.11,.94,3.68,2.17-18.73,2.74l-7-.82c-17.88-2.09-37.58-1.48-53.22-.83l-63.99,2.65c-36.38-.91-88.65-1.36-116.16-1l-25.01,.5-4.42,.09c-5.06,.55-10.78-2.9-11.32-4.25-.54-1.35,18.59-2.45,42.52-2.45Zm311.11-1.95c22.99,.22,149.83,1.45,175.55,1.7,25.72,.26,49.47,3.85,58.5,4.53,9.03,.68-58.16,.56-86.65-.23-28.5-.79-124.26,3.2-148.26,1.05-24-2.15-42.17-5.83-41.73-6.41,.44-.57,19.6-.86,42.59-.65Zm478.33-3.36c12.07,.05,68.08,1.71,85.27,2.32,17.19,.6,30.93,2.3,30.76,2.91-.16,.61-19.56,1.11-43.1,1.11-23.54,0-84.99-6.38-72.93-6.33Zm576.64-.89c4.34,.08,5.83,2.28,4.89,3.25-.93,.97-17.53-.6-21.27-1.16-3.74-.56-5.47-1.21-3.84-1.46,1.63-.25,15.87-.71,20.21-.63Zm89.13-1.75c13.19,1.03,11.36,4.3-1.47,4.4-12.83,.1-22.94-2.88-22.79-4.08,.15-1.21,11.07-1.35,24.26-.32Zm84.11,3.66c-4.39-.1-7.7-.64-7.6-.81,.11-.18,11.55-.4,15.85-.44,4.31-.03,7.82,.19,7.8,.49-.02,.3-11.66,.85-16.05,.75Zm80.98-6.01l10.64,.57,27.56,1.47c29.89-.5,70.64-.17,90.56,.73l18.95,.61,19.11,.61c21.84,.55,40.28,2.39,40.57,3.1,.29,.71-35.37,.49-48,.22-12.63-.27-61.89-.49-75.35-.31-13.45,.17-39.29-.35-57.42-1.16-18.13-.81-44.87-4.1-26.62-5.84Zm565.69,3.59c-25.55-.52-45.4-2.11-45-2.57,.41-.46,12.47-.69,26.8-.51,14.33,.18,80.56,1.85,92.13,2.33,11.58,.48-48.4,1.27-73.94,.74Zm-196.31-6.87l27.56,.72,30.64,.8c34,.62-18.55,3.6-49.53,4.54-30.98,.95-65.66,.31-71.49-.56-5.82-.88,22.44-3.35,62.81-5.5Zm303.86-1.29l12.5,.27c10.82,.23,25.3,1.37,31.62,.79l55.61-5.11c57.48,3.28,138.42,3.31,151.65,3.94,13.24,.63,69.38-1.61,84.69-.57,15.3,1.04,23.01,6.52,21.16,8.29-1.85,1.77-21.88,2.24-28.56,1.88-6.68-.36-42.45,.62-55.05,.43-12.6-.19-58.94-2.2-76.34-2.13-17.4,.07-69.68-.07-116.17-.3l-39.66-2.37-2.12-.13c-4.71,.6-1.35,2.05,1.62,2.45,2.97,.4-4.18,1.24-7.46,1.41-3.27,.17-9.77-1.05-14.44-2.72-4.67-1.67-44.24-3.54-47.16-4.63-2.91-1.09,9.74-1.77,28.11-1.51Zm-2255-.58c4.28,.11,7.44,.64,7.3,.81-.13,.17-11.6,.39-15.91,.42-4.31,.03-7.7-.19-7.54-.5,.16-.31,11.87-.84,16.15-.73Zm800.79-3.58c-.16,.31-11.87,.84-16.15,.73-4.28-.11-7.43-.64-7.3-.81,.13-.17,11.6-.39,15.91-.42,4.3-.03,7.7,.19,7.54,.5Zm-113.24-10.37l54.61-3.71c11.89-.81,31.97-.22,45.88,.53,31.84,1.73,67.76,1.65,93.13-.06,25.62-1.73,52.01-2.2,72.01-1.38,31.75,1.3,62.06,.99,93.29,1.22,19.38,.14,43.3,.24,56.34,1.76,13.12,1.53,24.55,3.46,39.43,4.88l1.91,.18c-3.85,1.54-21.22,1.8-24.17,1.59-1.77-.12-46.55,.9-91.19,1.54,4.06,.55,7.24,1.08,8.36,1.38,3.14,.84-19.98,1.72-28.5,1.78-8.52,.06-18.17-1-21.44-2.35,0,0-.04,0-2.55-.35-12.99,.06-24.42,.03-32.62-.16-41.7-.97-111.49-4.61-121.59-5.42-10.1-.81-31.68,1.42-35.63,2.28-3.95,.86-21.55,.73-25.93,.49-4.38-.24-56.43-.44-115.67-.44l-53.08,.89-55.42,.92c-59.01-1.19-136.44-1.98-150.29-1.92-13.85,.06,17.67-4.5,29.66-5.78,11.99-1.29,41.85-2.79,66.35-3.33,24.5-.54,137.05,3.79,197.11,5.46Zm708.74-12.53c-10.18-.13-43.82-.78-50.46-1.89-6.64-1.11,20.52-1.34,30.89-1.87,10.37-.53,53-.09,67.12-.27,14.11-.18,35.61,.98,39.17,1.45,3.56,.47,2.81,1.27-1.66,1.77h-3.66l-17.53-.08c-18.28-.8-53.69,1.01-63.87,.88Zm-1109.04-2.07c4.5,.11,6.14,2.01,5.38,2.69-.76,.68-5.47,.7-10.47,.05-5-.65,.59-2.85,5.09-2.75Zm-50.98,.56c.77,.77-24.74,1.2-34.75,1.12-10.01-.08-10.83-.79-1.82-1.6,9.01-.8,35.8-.3,36.57,.47Zm318.27-2.65l14.54,.24c15.78,.26,32.27,.08,48.16-.21l20.03-.36c15.01,2.59,10.78,4-9.4,3.13l-13.91-.27-15.42-.3c-17.32,.02-53.88,.08-62.46,.14-8.58,.06-16.18-2.06-16.39-2.81-.2-.75,15.47-.55,34.84,.44Zm1599.78-6.25c25.63-1.81,52.21-2.35,72.5-1.57,32.21,1.24,62.77,.85,94.31,1,19.58,.09,43.74,.14,57.1,1.64,13.44,1.51,25.23,3.43,40.44,4.83l1.95,.18c-3.68,1.56-21.18,1.87-24.19,1.66-3-.2-127.04,3.15-169.26,2.27-42.21-.88-113.13-4.39-123.42-5.18-10.29-.79-31.78,1.51-35.66,2.39-3.88,.87-21.66,.79-26.11,.56-4.45-.23-57.01-.31-116.8-.17l-53.46,1.02-55.81,1.07c-43.56-.77-96.71-1.3-127.85-1.49-.7,0-1.58-.01-2.25-.02-10.5-.06-18.28-.09-21.83-.06-13.97,.09,17.25-4.58,29.18-5.91,11.93-1.33,41.87-2.91,66.53-3.52s138.82,3.5,199.65,5.03l54.64-3.87c11.9-.84,32.24-.3,46.38,.43,32.36,1.67,68.6,1.5,93.98-.29Zm-862.15-77.9c-.82-1.33,17.9-2.5,41.6-2.59,23.7-.09,150.87,3.39,174.87,2.06,24-1.32,68.48-.6,80.66,.28,12.19,.88,4.1,2.14-17.98,2.78l-7.1-.78c-18.14-2-37.53-1.32-52.88-.62l-62.82,2.87c-36.22-.76-88.07-1.01-115.24-.55l-24.66,.59-4.35,.1c-4.9,.56-11.28-2.83-12.1-4.16Zm-102.61,.24c3.72-.78,24.93-1.62,28.65-1.66s36.82,2.77,46.64,3.7c9.82,.93,1.87,1.98-17.65,2.33-19.53,.35-61.35-3.6-57.64-4.37Zm-76.2-.02c10.96,.59,9.99,2.96,.32,3.07-9.67,.11-18.74-1.67-19.27-2.55-.54-.87,7.99-1.11,18.95-.53Zm-90.56,4.13c-8.16,.59-29.13-.73-33.51-1.28-4.37-.55-.08-1.85,9.54-2.88,9.62-1.03,32.13,3.57,23.97,4.16Zm-139.13-7.27c44.34,2.7,65.47,7.9,59.56,9.07-5.91,1.16-25.44,.97-29.68,.64-4.24-.33-11.41-.1-13.33,.16-1.92,.26-20.61,.09-41.54-.39-20.93-.47-147.78-.16-174.06,1.18-26.28,1.34-51.07,1.49-52.37,1.11-1.29-.37-29.36-1.95-35.68-2.25-6.32-.3-.46-4.16,3.45-5.45,3.92-1.29,51.72-.16,65.81,.53,14.08,.69,61.37-.25,76.33-.23,14.96,.02,48.22,.11,73.92,.18l19.4-1.31,48.18-3.25Z"/></g><rect class="cls-1" x="-21" y="249.5" width="4546" height="1196"/></svg>